<svg xmlns="http://www.w3.org/2000/svg" xmlns:xlink="http://www.w3.org/1999/xlink" viewBox="0 0 1697.77 925.76"><defs><style>.a,.b,.c{stroke:#0b6a00;stroke-miterlimit:10;stroke-width:7px;}.a{fill:url(#a);}.b{fill:url(#d);}.c{fill:url(#e);}</style><radialGradient id="a" cx="1324.9" cy="1107.96" r="1176.46" gradientUnits="userSpaceOnUse"><stop offset="0" stop-color="#fff"/><stop offset="0.45" stop-color="#8ed999"/><stop offset="1" stop-color="#00aa19"/></radialGradient><radialGradient id="d" cx="1324.9" cy="1107.96" r="1176.46" xlink:href="#a"/><radialGradient id="e" cx="1324.9" cy="1107.96" r="1176.46" xlink:href="#a"/></defs><title>Prancheta 1</title><polygon class="a" points="1234.54 164.09 1234.54 724.11 1105.83 724.11 1104.38 386.11 868.72 719.59 636.95 387.64 636.13 724.11 507.42 724.11 507.42 164.09 642.91 164.09 870.53 493.42 1099.06 164.09 1234.54 164.09"/><path class="a" d="M470.19,397.77v56.08l-131.66,33L251.9,432.78,115.66,467.4S110,490,80.29,499c-15,4.56-40.58,3.39-53.82-11.66s-21.9-37.47-9.41-63.23c18.06-37.26,70-36.51,90.32-10.91l156.94-40.65,86.19,55.32L421.26,411Z"/><path class="a" d="M470.19,532.89v57.77l-32.37,6.58s-3.95,45.17-62.09,45.17c-32.37-6.4-45.27-31.77-43.47-62.1,3.76-27.48,23.33-38.39,39.81-44.5,29.07-5.18,44.11,12,44.11,12Z"/><path class="b" d="M469.06,688.7v54.68l-49.68,11.56-53.06,89.19-164.1,43.66s-16,27.1-45.91,29.36c-13,1-33.5-4.33-47-23.34-7.59-10.65-14.49-35.56-4-55.13,9.6-17.82,21.24-28.28,42-29.64,15.78-1,25.72,2.31,33.66,7.81,7.34,5.08,17.31,16,17.31,16L331,798.63l47.38-88.1Z"/><path class="c" d="M1268.45,221.92V113.81l78.47-20L1498.07,56s4.39-34.7,30.63-44.46c30.34-11.29,51.09.71,63.23,14,12.59,13.77,15.1,40.65,8.32,57.73-3.88,9.78-18.06,22.48-27.66,26.81a58.51,58.51,0,0,1-30.91,4.46c-10-1.49-20.6-8.13-20.6-8.13l-215.09,56Z"/><path class="a" d="M1268.45,326.64v58.43l179-46.25s10.19,12.24,27.33,14.07c11.86,1.27,25.27.71,41.22-10.72,6.7-4.81,16.59-16.14,19.19-26.82,2.82-11.57,1.38-30-2.54-39-6.07-13.83-19.63-23.54-28.79-27.38a54.21,54.21,0,0,0-38.8-.85c-7.12,2.5-19.12,11.47-24.44,19.55-2.84,4.33-9.31,18.56-9.31,18.56Z"/><path class="a" d="M1268.45,481l23.71-5.74,85.43,55.33,205.19-53.16s6-28.67,27-37.54c18-7.58,37.19-6,48.14-1.23,13.07,5.74,25.62,20.36,28.26,34.72,3.72,20.22-2.87,36.48-11.15,48.49-4.5,6.5-18.07,15-25.61,17.32-7.19,2.25-21,2.12-29.23,0-6.43-1.67-21.37-11.64-21.37-11.64l-231,61L1282,533.82l-13.56,3.68Z"/></svg>