<svg xmlns="http://www.w3.org/2000/svg" xmlns:xlink="http://www.w3.org/1999/xlink" viewBox="0 0 760.29 416.1"><defs><style>.a{fill:url(#a);}.b{fill:url(#d);}</style><radialGradient id="a" cx="594.87" cy="498.95" r="529.83" gradientUnits="userSpaceOnUse"><stop offset="0" stop-color="#fff"/><stop offset="0.45" stop-color="#8eaed9"/><stop offset="1" stop-color="#0048aa"/></radialGradient><radialGradient id="d" cx="594.87" cy="498.95" r="529.83" xlink:href="#a"/></defs><title>Prancheta 1</title><polygon class="a" points="554.18 73.87 554.18 326.08 496.21 326.08 495.56 173.86 389.43 324.05 285.05 174.55 284.69 326.08 226.72 326.08 226.72 73.87 287.74 73.87 390.25 222.19 493.16 73.87 554.18 73.87"/><path class="a" d="M210,179.11v25.26l-59.29,14.87-39-24.36L50.29,210.47s-2.55,10.17-15.94,14.24c-6.76,2-18.27,1.52-24.23-5.26S.25,202.58,5.88,191C14,174.2,37.4,174.54,46.56,186.06l70.68-18.3,38.81,24.91,31.87-7.62Z"/><path class="a" d="M210,240v26l-14.58,3s-1.78,20.34-28,20.34c-14.58-2.88-20.39-14.31-19.58-28,1.7-12.37,10.51-17.29,17.93-20,13.09-2.33,19.86,5.42,19.86,5.42Z"/><path class="b" d="M209.44,310.13v24.63L187.07,340l-23.9,40.17L89.27,399.8S82.07,412,68.59,413A24.6,24.6,0,0,1,47.4,402.51c-3.42-4.8-6.52-16-1.78-24.83,4.33-8,9.57-12.73,18.91-13.35,7.11-.47,11.59,1,15.16,3.52a61.61,61.61,0,0,1,7.8,7.2l59.76-15.41L168.59,320Z"/><path class="a" d="M569.45,99.92V51.23l35.34-9,68.07-17s2-15.62,13.8-20c13.66-5.09,23,.32,28.47,6.29,5.67,6.2,6.8,18.31,3.75,26-1.75,4.41-8.13,10.12-12.46,12.07a26.27,26.27,0,0,1-13.92,2,28.82,28.82,0,0,1-9.28-3.66L586.36,73.1Z"/><path class="a" d="M569.45,147.08v26.31l80.62-20.82a20,20,0,0,0,12.31,6.33,24.78,24.78,0,0,0,18.56-4.83c3-2.16,7.47-7.27,8.64-12.07,1.27-5.22.62-13.52-1.14-17.55-2.74-6.23-8.85-10.6-13-12.33a24.47,24.47,0,0,0-17.47-.38,27.27,27.27,0,0,0-11,8.8c-1.28,1.95-4.19,8.36-4.19,8.36Z"/><path class="a" d="M569.45,216.62,580.13,214,618.6,239,711,215s2.69-12.92,12.17-16.91c8.1-3.41,16.75-2.72,21.68-.55,5.89,2.58,11.54,9.16,12.73,15.63,1.68,9.11-1.29,16.43-5,21.84-2,2.93-8.14,6.73-11.54,7.8-3.23,1-9.47,1-13.16,0-2.9-.75-9.63-5.24-9.63-5.24l-104,27.47-38.64-24.67L569.45,242Z"/></svg>